<mxfile host="app.diagrams.net" modified="2024-07-29T10:05:16.543Z" agent="Mozilla/5.0 (X11; Linux x86_64) AppleWebKit/537.36 (KHTML, like Gecko) Chrome/126.0.0.0 Safari/537.36" etag="VFwQyMPhyh4fgO2OkJm6" version="24.2.1" type="device">
  <diagram name="Page-1" id="dYfGVJWsMYug4irtBKh2">
    <mxGraphModel dx="1605" dy="893" grid="1" gridSize="10" guides="1" tooltips="1" connect="1" arrows="1" fold="1" page="1" pageScale="1" pageWidth="1169" pageHeight="827" math="0" shadow="0">
      <root>
        <mxCell id="0" />
        <mxCell id="1" parent="0" />
        <mxCell id="_5JMlsC5I_FKe8GCmVyE-21" value="" style="rounded=1;whiteSpace=wrap;html=1;" vertex="1" parent="1">
          <mxGeometry x="490" y="550" width="340" height="240" as="geometry" />
        </mxCell>
        <mxCell id="_5JMlsC5I_FKe8GCmVyE-4" value="" style="rounded=1;whiteSpace=wrap;html=1;" vertex="1" parent="1">
          <mxGeometry x="80" y="50" width="900" height="330" as="geometry" />
        </mxCell>
        <mxCell id="_5JMlsC5I_FKe8GCmVyE-1" value="Sorrylinus&lt;div&gt;Again&lt;/div&gt;&lt;div&gt;Server&lt;/div&gt;" style="ellipse;whiteSpace=wrap;html=1;aspect=fixed;fontStyle=1;fontSize=24;" vertex="1" parent="1">
          <mxGeometry x="260" y="90" width="170" height="170" as="geometry" />
        </mxCell>
        <mxCell id="_5JMlsC5I_FKe8GCmVyE-2" value="Sorrylinus&lt;div&gt;Hub&lt;/div&gt;" style="ellipse;whiteSpace=wrap;html=1;aspect=fixed;fontStyle=1;fontSize=24;" vertex="1" parent="1">
          <mxGeometry x="700" y="90" width="170" height="170" as="geometry" />
        </mxCell>
        <mxCell id="_5JMlsC5I_FKe8GCmVyE-3" value="Sorrylinus" style="ellipse;whiteSpace=wrap;html=1;aspect=fixed;fontStyle=1;fontSize=24;" vertex="1" parent="1">
          <mxGeometry x="570" y="570" width="170" height="170" as="geometry" />
        </mxCell>
        <mxCell id="_5JMlsC5I_FKe8GCmVyE-6" value="" style="shape=actor;whiteSpace=wrap;html=1;" vertex="1" parent="1">
          <mxGeometry x="170" y="600" width="120" height="180" as="geometry" />
        </mxCell>
        <mxCell id="_5JMlsC5I_FKe8GCmVyE-8" value="My AC and stuff" style="shape=cube;whiteSpace=wrap;html=1;boundedLbl=1;backgroundOutline=1;darkOpacity=0.05;darkOpacity2=0.1;fontStyle=1;fontSize=22;" vertex="1" parent="1">
          <mxGeometry x="940" y="570" width="180" height="120" as="geometry" />
        </mxCell>
        <mxCell id="_5JMlsC5I_FKe8GCmVyE-9" value="Self-hosted&lt;div&gt;K8s&lt;/div&gt;&lt;div&gt;Cluster on QEMU/KVM&lt;/div&gt;" style="rounded=0;whiteSpace=wrap;html=1;fontStyle=1;fontSize=24;" vertex="1" parent="1">
          <mxGeometry x="440" y="20" width="270" height="100" as="geometry" />
        </mxCell>
        <mxCell id="_5JMlsC5I_FKe8GCmVyE-10" value="feebdaed.xyz" style="rounded=0;whiteSpace=wrap;html=1;fontStyle=1;fontSize=24;" vertex="1" parent="1">
          <mxGeometry x="150" y="460" width="200" height="80" as="geometry" />
        </mxCell>
        <mxCell id="_5JMlsC5I_FKe8GCmVyE-11" value="" style="edgeStyle=segmentEdgeStyle;endArrow=classic;html=1;curved=0;rounded=0;endSize=8;startSize=8;exitX=0.5;exitY=0;exitDx=0;exitDy=0;entryX=0.613;entryY=0.999;entryDx=0;entryDy=0;entryPerimeter=0;" edge="1" parent="1" source="_5JMlsC5I_FKe8GCmVyE-6" target="_5JMlsC5I_FKe8GCmVyE-10">
          <mxGeometry width="50" height="50" relative="1" as="geometry">
            <mxPoint x="600" y="550" as="sourcePoint" />
            <mxPoint x="650" y="500" as="targetPoint" />
          </mxGeometry>
        </mxCell>
        <mxCell id="_5JMlsC5I_FKe8GCmVyE-12" value="" style="edgeStyle=segmentEdgeStyle;endArrow=classic;html=1;curved=0;rounded=0;endSize=8;startSize=8;exitX=1;exitY=0.5;exitDx=0;exitDy=0;entryX=1;entryY=1;entryDx=0;entryDy=0;" edge="1" parent="1" source="_5JMlsC5I_FKe8GCmVyE-10" target="_5JMlsC5I_FKe8GCmVyE-1">
          <mxGeometry width="50" height="50" relative="1" as="geometry">
            <mxPoint x="600" y="550" as="sourcePoint" />
            <mxPoint x="650" y="500" as="targetPoint" />
          </mxGeometry>
        </mxCell>
        <mxCell id="_5JMlsC5I_FKe8GCmVyE-13" value="nginx" style="ellipse;whiteSpace=wrap;html=1;aspect=fixed;fontStyle=1;fontSize=18;" vertex="1" parent="1">
          <mxGeometry x="200" y="309.5" width="107" height="107" as="geometry" />
        </mxCell>
        <mxCell id="_5JMlsC5I_FKe8GCmVyE-14" value="turn&lt;div&gt;server&lt;/div&gt;" style="ellipse;whiteSpace=wrap;html=1;aspect=fixed;fontStyle=1;fontSize=18;" vertex="1" parent="1">
          <mxGeometry x="40" y="240" width="107" height="107" as="geometry" />
        </mxCell>
        <mxCell id="_5JMlsC5I_FKe8GCmVyE-15" value="" style="edgeStyle=segmentEdgeStyle;endArrow=classic;html=1;curved=0;rounded=0;endSize=8;startSize=8;entryX=0.5;entryY=1;entryDx=0;entryDy=0;" edge="1" parent="1" target="_5JMlsC5I_FKe8GCmVyE-13">
          <mxGeometry width="50" height="50" relative="1" as="geometry">
            <mxPoint x="254" y="460" as="sourcePoint" />
            <mxPoint x="650" y="360" as="targetPoint" />
          </mxGeometry>
        </mxCell>
        <mxCell id="_5JMlsC5I_FKe8GCmVyE-16" value="" style="edgeStyle=segmentEdgeStyle;endArrow=classic;html=1;curved=0;rounded=0;endSize=8;startSize=8;entryX=0;entryY=1;entryDx=0;entryDy=0;exitX=0;exitY=0.5;exitDx=0;exitDy=0;" edge="1" parent="1" source="_5JMlsC5I_FKe8GCmVyE-10" target="_5JMlsC5I_FKe8GCmVyE-14">
          <mxGeometry width="50" height="50" relative="1" as="geometry">
            <mxPoint x="600" y="410" as="sourcePoint" />
            <mxPoint x="650" y="360" as="targetPoint" />
          </mxGeometry>
        </mxCell>
        <mxCell id="_5JMlsC5I_FKe8GCmVyE-17" value="" style="edgeStyle=segmentEdgeStyle;endArrow=classic;html=1;curved=0;rounded=0;endSize=8;startSize=8;entryX=0.884;entryY=0.999;entryDx=0;entryDy=0;entryPerimeter=0;" edge="1" parent="1" target="_5JMlsC5I_FKe8GCmVyE-10">
          <mxGeometry width="50" height="50" relative="1" as="geometry">
            <mxPoint x="570" y="637" as="sourcePoint" />
            <mxPoint x="650" y="360" as="targetPoint" />
          </mxGeometry>
        </mxCell>
        <mxCell id="_5JMlsC5I_FKe8GCmVyE-18" value="" style="edgeStyle=segmentEdgeStyle;endArrow=classic;html=1;curved=0;rounded=0;endSize=8;startSize=8;exitX=1.013;exitY=0.911;exitDx=0;exitDy=0;exitPerimeter=0;entryX=0.5;entryY=1;entryDx=0;entryDy=0;" edge="1" parent="1" source="_5JMlsC5I_FKe8GCmVyE-10" target="_5JMlsC5I_FKe8GCmVyE-2">
          <mxGeometry width="50" height="50" relative="1" as="geometry">
            <mxPoint x="600" y="410" as="sourcePoint" />
            <mxPoint x="650" y="360" as="targetPoint" />
          </mxGeometry>
        </mxCell>
        <mxCell id="_5JMlsC5I_FKe8GCmVyE-19" value="" style="edgeStyle=segmentEdgeStyle;endArrow=classic;html=1;curved=0;rounded=0;endSize=8;startSize=8;" edge="1" parent="1" source="_5JMlsC5I_FKe8GCmVyE-13" target="_5JMlsC5I_FKe8GCmVyE-1">
          <mxGeometry width="50" height="50" relative="1" as="geometry">
            <mxPoint x="600" y="410" as="sourcePoint" />
            <mxPoint x="650" y="360" as="targetPoint" />
          </mxGeometry>
        </mxCell>
        <mxCell id="_5JMlsC5I_FKe8GCmVyE-20" value="" style="edgeStyle=segmentEdgeStyle;endArrow=classic;html=1;curved=0;rounded=0;endSize=8;startSize=8;" edge="1" parent="1" source="_5JMlsC5I_FKe8GCmVyE-1" target="_5JMlsC5I_FKe8GCmVyE-2">
          <mxGeometry width="50" height="50" relative="1" as="geometry">
            <mxPoint x="600" y="410" as="sourcePoint" />
            <mxPoint x="650" y="360" as="targetPoint" />
          </mxGeometry>
        </mxCell>
        <mxCell id="_5JMlsC5I_FKe8GCmVyE-22" value="RPi 4" style="rounded=0;whiteSpace=wrap;html=1;fontStyle=1;fontSize=24;" vertex="1" parent="1">
          <mxGeometry x="750" y="740" width="130" height="70" as="geometry" />
        </mxCell>
        <mxCell id="_5JMlsC5I_FKe8GCmVyE-23" value="" style="edgeStyle=segmentEdgeStyle;endArrow=classic;html=1;curved=0;rounded=0;endSize=8;startSize=8;entryX=0.69;entryY=0.065;entryDx=0;entryDy=0;entryPerimeter=0;" edge="1" parent="1" source="_5JMlsC5I_FKe8GCmVyE-1" target="_5JMlsC5I_FKe8GCmVyE-14">
          <mxGeometry width="50" height="50" relative="1" as="geometry">
            <mxPoint x="600" y="410" as="sourcePoint" />
            <mxPoint x="650" y="360" as="targetPoint" />
          </mxGeometry>
        </mxCell>
        <mxCell id="_5JMlsC5I_FKe8GCmVyE-24" value="sorrylinus&lt;div&gt;query&lt;/div&gt;&lt;div&gt;over&lt;/div&gt;&lt;div&gt;TCP/TLS&lt;/div&gt;" style="text;html=1;align=center;verticalAlign=middle;whiteSpace=wrap;rounded=0;fontStyle=3;fontSize=16;" vertex="1" parent="1">
          <mxGeometry x="620" y="480" width="60" height="30" as="geometry" />
        </mxCell>
        <mxCell id="_5JMlsC5I_FKe8GCmVyE-25" value="sorrylinus&lt;div&gt;query&lt;/div&gt;&lt;div&gt;over&lt;/div&gt;&lt;div&gt;TCP/TLS&lt;/div&gt;" style="text;html=1;align=center;verticalAlign=middle;whiteSpace=wrap;rounded=0;fontStyle=3;fontSize=16;" vertex="1" parent="1">
          <mxGeometry x="400" y="660" width="60" height="30" as="geometry" />
        </mxCell>
        <mxCell id="_5JMlsC5I_FKe8GCmVyE-26" value="sorrylinus&lt;div&gt;query&lt;/div&gt;&lt;div&gt;over&lt;/div&gt;&lt;div&gt;WS&lt;/div&gt;" style="text;html=1;align=center;verticalAlign=middle;whiteSpace=wrap;rounded=0;fontStyle=3;fontSize=16;" vertex="1" parent="1">
          <mxGeometry x="545" y="200" width="60" height="30" as="geometry" />
        </mxCell>
        <mxCell id="_5JMlsC5I_FKe8GCmVyE-27" value="&lt;div&gt;All kinds of requests over&amp;nbsp;&lt;/div&gt;&lt;div&gt;WSS, HTTPS&lt;/div&gt;" style="text;html=1;align=center;verticalAlign=middle;whiteSpace=wrap;rounded=0;fontStyle=3;fontSize=16;" vertex="1" parent="1">
          <mxGeometry x="80" y="570" width="60" height="30" as="geometry" />
        </mxCell>
        <mxCell id="_5JMlsC5I_FKe8GCmVyE-28" value="" style="edgeStyle=segmentEdgeStyle;endArrow=classic;html=1;curved=0;rounded=0;endSize=8;startSize=8;" edge="1" parent="1" target="_5JMlsC5I_FKe8GCmVyE-22">
          <mxGeometry width="50" height="50" relative="1" as="geometry">
            <mxPoint x="740" y="650" as="sourcePoint" />
            <mxPoint x="790" y="600" as="targetPoint" />
          </mxGeometry>
        </mxCell>
        <mxCell id="_5JMlsC5I_FKe8GCmVyE-29" value="camera,&lt;div&gt;infrared ....&lt;/div&gt;&lt;div&gt;&lt;br&gt;&lt;/div&gt;" style="text;html=1;align=center;verticalAlign=middle;whiteSpace=wrap;rounded=0;fontStyle=3;fontSize=16;" vertex="1" parent="1">
          <mxGeometry x="740" y="590" width="60" height="30" as="geometry" />
        </mxCell>
      </root>
    </mxGraphModel>
  </diagram>
</mxfile>
